# xmcd CD database file
#
# Track frame offsets:
#	187
#	17920
#	32222
#	52705
#	69287
#	83760
#	100710
#	114532
#	133152
#	144220
#	161640
#	176475
#	196212
#	214777
#	231742
#	250337
#	261867
#	285320
#	306390
#	330430
#
# Disc length: 4643 seconds
#
# Revision: 2
# Processed by: cddbd v1.5.2PL0 Copyright (c) Steve Scherf et al.
# Submitted via: CDex 1.70beta2
#
DISCID=18122114
DTITLE=松崎しげる - 25th Anniversary 2
DYEAR=1995
DGENRE=Pop
TTITLE0=愛の微笑(「愛のメモリー」原曲)
TTITLE1=そんな君に
TTITLE2=素晴らしい朝
TTITLE3=九月の海
TTITLE4=ガール・ガール・ガール
TTITLE5=想い出は煙にとけて
TTITLE6=セクシー・ベイビー
TTITLE7=マイ・ラブ I Gave You My Love
TTITLE8=波止場
TTITLE9=愛・悲しみ
TTITLE10=16ビート・センセーション
TTITLE11=Day Dream Romance
TTITLE12=モーニング・プリーズ
TTITLE13=悲しみのラブ・ソング
TTITLE14=ワンダフル・モーメント
TTITLE15=雨の微笑(リプライズ)
TTITLE16=抜け殻
TTITLE17=愛を信じて
TTITLE18=夜明けの街で聞こえる歌
TTITLE19=愛のメモリー
EXTD=YEAR: 1995
EXTT0=
EXTT1=
EXTT2=
EXTT3=
EXTT4=
EXTT5=
EXTT6=
EXTT7=
EXTT8=
EXTT9=
EXTT10=
EXTT11=
EXTT12=
EXTT13=
EXTT14=
EXTT15=
EXTT16=
EXTT17=
EXTT18=
EXTT19=
PLAYORDER=
